<svg width="1089" height="285" viewBox="0 0 1089 285" fill="none" xmlns="http://www.w3.org/2000/svg">
<path fill-rule="evenodd" clip-rule="evenodd" d="M935.479 1.29645C927.074 3.92945 923.032 8.97645 921.476 18.7805C920.902 22.3965 920.278 23.3485 917.89 24.2495C913.889 25.7605 913.963 28.9025 918 28.9025H921V47.3315C921 62.7505 920.743 66.0165 919.429 67.3315C918.564 68.1955 917.439 68.9025 916.929 68.9025C916.418 68.9025 916 69.8025 916 70.9025C916 72.7995 916.667 72.9025 929 72.9025C941.069 72.9025 942 72.7675 942 71.0175C942 69.9805 940.875 68.3954 939.5 67.4944L937 65.8564V47.3795V28.9025H941.5C945.976 28.9025 946 28.8835 946 25.4025C946 21.9215 945.976 21.9025 941.5 21.9025H937V15.9025C937 11.2585 937.447 9.45546 938.977 7.92546C941.347 5.55546 943.792 6.22645 945.075 9.59945C945.859 11.6625 946.556 11.9775 949.748 11.7125C953.483 11.4035 953.501 11.3795 953.811 6.49945C954.017 3.25345 953.679 1.31445 952.811 0.764453C950.857 -0.474547 940.075 -0.14355 935.479 1.29645ZM607 8.35845V14.9025H614.548H622.095L621.798 8.65245L621.5 2.40245L614.25 2.10845L607 1.81446V8.35845ZM738 8.35845V14.9025H745.548H753.095L752.798 8.65245L752.5 2.40245L745.25 2.10845L738 1.81446V8.35845ZM346.892 5.65245C346.31 7.16545 341.435 20.1135 336.059 34.4275C324.823 64.3425 323.782 66.5894 320.452 68.1064C319.103 68.7204 318 70.0514 318 71.0634C318 72.7424 319.001 72.9025 329.5 72.9025C339.818 72.9025 341 72.7215 341 71.1395C341 70.1705 339.988 68.9325 338.75 68.3895C335.982 67.1755 335.318 62.4115 337.053 56.2145L338.26 51.9025H349.011H359.763L360.881 56.3454C362.726 63.6704 362.36 66.7815 359.5 68.0845C358.125 68.7105 357 70.0514 357 71.0634C357 72.7644 358.088 72.9025 371.5 72.9025C385.165 72.9025 386 72.7915 386 70.9695C386 69.9065 385.1 68.7515 383.999 68.4025C382.898 68.0525 381.493 66.8225 380.875 65.6685C380 64.0335 362 4.46546 362 3.20446C362 3.03846 358.839 2.90245 354.975 2.90245C348.235 2.90245 347.908 3.01345 346.892 5.65245ZM699 13.4345C699 18.7805 696.568 23.7215 693.566 24.4755C689.729 25.4385 690.069 28.9025 694 28.9025H697V45.5865C697 60.3905 697.232 62.7505 699.06 66.5275C702.9 74.4595 714.19 76.1244 723.645 70.1514C728.423 67.1324 728.752 66.3905 726.441 63.8375C725.027 62.2755 724.604 62.2535 721.894 63.6055C718.419 65.3385 714.557 64.6785 713.441 62.1615C713.012 61.1935 712.465 53.3145 712.226 44.6525L711.79 28.9025H719.459H727.127L726.813 25.6525L726.5 22.4025L719.25 22.1085L712 21.8145V15.8585V9.90245H705.5H699V13.4345ZM349.724 44.6945C345.339 44.8555 341.606 44.8415 341.427 44.6635C341.249 44.4855 343.186 38.5435 345.732 31.4595L350.361 18.5795L354.028 31.4914L357.696 44.4025L349.724 44.6945ZM402.5 23.7925C397.022 26.3205 393.936 29.9635 393.308 34.6415C392.392 41.4695 397.512 48.0495 406.857 52.0555C414.509 55.3355 417 57.6335 417 61.4135C417 69.6275 404.375 70.0505 401.02 61.9495C399.92 59.2945 399.259 58.9025 395.879 58.9025H392V65.2805V71.6595L399.541 72.7805C408.959 74.1815 412.57 74.1884 418.972 72.8154C428.236 70.8284 433.27 63.4875 431.573 54.4415C430.7 49.7875 426.579 45.9075 418.345 41.9865C410.084 38.0535 408 36.3075 408 33.3185C408 29.9455 410.633 27.9025 414.983 27.9025C418.042 27.9025 419.348 28.5275 421.411 30.9795C422.835 32.6715 424 34.4715 424 34.9795C424 35.4875 425.575 35.9025 427.5 35.9025H431V29.5275C431 23.1875 430.983 23.1495 427.875 22.5275C421.074 21.1675 406.628 21.8875 402.5 23.7925ZM452.007 23.4955C446.985 25.6735 444.128 28.7135 442.933 33.1525C440.825 40.9785 444.589 46.2445 456.558 52.2135C464.988 56.4185 466.236 57.7445 465.818 62.0555C465.103 69.4405 454.354 69.6884 450.435 62.4104C448.782 59.3414 448.067 58.9025 444.725 58.9025H440.905L441.202 65.0845C441.486 70.9855 441.636 71.3074 444.5 72.1714C446.15 72.6684 452.225 73.1495 458 73.2395C466.722 73.3745 469.175 73.0635 472.487 71.4025C477.951 68.6615 481 63.8255 481 57.9025C481 50.6655 478.107 47.2445 467.468 41.9025C460.591 38.4495 458.289 36.7695 457.571 34.6825C456.287 30.9515 459.053 27.9025 463.721 27.9025C468.3 27.9025 470.474 29.2185 472.006 32.9165C473.144 35.6655 473.684 35.9725 476.893 35.7045L480.5 35.4025L480.794 29.2905L481.088 23.1785L477.294 22.5515C470.147 21.3705 455.661 21.9115 452.007 23.4955ZM504.491 23.7675C493.496 28.7625 488.201 44.1135 492.49 58.5575C495.612 69.0685 505.583 74.7904 518.65 73.5704C526.233 72.8624 531.794 70.1895 535.803 65.3255C539.944 60.3015 541.34 54.5345 540.802 44.6665C540.168 33.0265 537.079 27.7885 528.5 23.8045C523.018 21.2585 510.059 21.2385 504.491 23.7675ZM567.239 23.2375C557.56 26.7475 552.026 35.7375 552.01 47.9745C551.997 57.7855 554.087 63.8455 559.022 68.3035C567.563 76.0205 581.926 75.4544 591.75 67.0145C594.52 64.6355 594.558 63.7174 591.98 61.3844C590.016 59.6074 589.872 59.6215 586.832 61.8685C585.111 63.1405 581.767 64.3995 579.399 64.6665C575.632 65.0915 574.727 64.7825 572.133 62.1895C568.608 58.6645 567.525 53.2005 568.217 42.4305C568.521 37.6875 569.374 33.9475 570.649 31.7645C572.352 28.8485 573.136 28.4025 576.556 28.4025C580.325 28.4025 580.56 28.5925 581.86 32.7005L583.22 36.9995L588.36 36.7005L593.5 36.4025V29.9125C593.5 23.5105 593.459 23.4135 590.5 22.7805C585.435 21.6975 570.686 21.9875 567.239 23.2375ZM601 24.1655C601 25.5315 601.872 26.8195 603.202 27.4155C606.49 28.8895 607.234 33.6655 606.844 50.7825C606.51 65.4235 606.385 66.2344 604.247 67.6544C603.011 68.4754 602 69.9914 602 71.0244C602 72.7614 602.937 72.9025 614.5 72.9025C628.262 72.9025 629.331 72.3245 624.5 67.4935L622 64.9935V43.4475V21.9025H611.5C601.26 21.9025 601 21.9585 601 24.1655ZM646.89 24.2315C637.906 27.4665 638 27.3735 638 32.9615V37.9025H642.902C647.513 37.9025 647.87 37.7135 648.915 34.7175C650.559 30.0015 652.895 27.9025 656.5 27.9025C661.14 27.9025 663.294 30.8195 663.798 37.7865L664.218 43.5945L658.218 44.2215C649.589 45.1235 641.677 48.3675 638.06 52.4865C635.508 55.3935 635 56.8134 635 61.0374C635 65.4404 635.434 66.5364 638.321 69.4234C644.269 75.3714 654.384 75.0885 662.314 68.7525L666.128 65.7054L665.452 69.3044L664.777 72.9025H674.889C684.333 72.9025 685 72.7705 685 70.9025C685 69.8025 684.636 68.9025 684.191 68.9025C683.746 68.9025 682.52 68.2725 681.467 67.5025C679.735 66.2355 679.502 64.3255 679.026 47.5195L678.5 28.9375L675.232 25.6705C672.07 22.5075 671.668 22.3935 662.732 22.1275C655.065 21.8985 652.379 22.2555 646.89 24.2315ZM732 24.2855C732 25.8235 732.705 26.8535 733.988 27.1895C737.457 28.0965 738.19 32.4025 737.835 49.7805C737.514 65.4735 737.406 66.2215 735.25 67.6525C734.013 68.4745 733 69.9914 733 71.0244C733 72.7614 733.937 72.9025 745.5 72.9025C759.262 72.9025 760.331 72.3245 755.5 67.4935L753 64.9935V43.4475V21.9025H742.5C732.104 21.9025 732 21.9265 732 24.2855ZM782.5 22.9634C777.924 24.3064 772.433 29.3765 769.911 34.5865C768.153 38.2175 767.627 41.0915 767.578 47.3385C767.478 59.8755 770.846 66.6745 779.376 71.1575C785.322 74.2835 798.722 74.2594 804.712 71.1134C813.296 66.6044 817.197 59.6295 817.383 48.4585C817.607 35.0025 812.559 25.8845 803.36 23.1285C798.716 21.7375 786.993 21.6444 782.5 22.9634ZM827 24.1655C827 25.5385 827.872 26.8165 829.217 27.4155C832.413 28.8375 833.193 34.0234 832.81 51.2874C832.497 65.4114 832.365 66.2485 830.24 67.6595C829.008 68.4775 828 69.9914 828 71.0244C828 72.7614 828.937 72.9025 840.5 72.9025C851.311 72.9025 853 72.6854 853 71.2964C853 70.4134 851.875 68.8054 850.5 67.7234C848.036 65.7854 848 65.5464 848 51.0524C848 34.8814 848.504 33.1794 853.954 30.9214C856.512 29.8624 857.37 29.9145 859.419 31.2575C862.477 33.2615 863.323 39.0765 862.843 54.8165C862.531 65.0755 862.299 66.2455 860.25 67.9035C859.013 68.9045 858 70.4385 858 71.3125C858 72.6805 859.742 72.9025 870.5 72.9025C881.404 72.9025 883 72.6935 883 71.2675C883 70.3675 881.875 68.5895 880.5 67.3145C878.044 65.0385 878 64.7305 877.994 49.7005C877.988 32.0775 877.159 28.0554 872.773 24.3654C869.893 21.9414 868.993 21.7335 862.875 22.0795C857.22 22.3985 855.423 22.9774 851.632 25.7004L847.12 28.9405L847.691 25.4214L848.262 21.9025H837.631C827.255 21.9025 827 21.9565 827 24.1655ZM966.625 23.3715C957.548 26.6075 952.567 35.2665 952.525 47.8855C952.478 61.9815 958.349 70.5875 969.607 72.9245C984.082 75.9295 997.197 69.8085 1001.07 58.2385C1002.8 53.0755 1002.8 42.5145 1001.06 36.4725C999.312 30.4035 993.996 24.8165 988.36 23.1285C982.964 21.5115 971.482 21.6405 966.625 23.3715ZM1012 24.1655C1012 25.5505 1012.87 26.8115 1014.24 27.4155C1017.33 28.7715 1018.28 35.8245 1017.7 52.8675C1017.28 65.2015 1017.06 66.4515 1015.12 67.7395C1013.95 68.5135 1013 69.9914 1013 71.0244C1013 72.7614 1013.94 72.9025 1025.5 72.9025C1039.26 72.9025 1040.33 72.3245 1035.5 67.4935C1033.06 65.0555 1033 64.6325 1033 50.4025C1033 36.2445 1033.07 35.7385 1035.45 33.3575C1036.8 32.0075 1038.76 30.9025 1039.8 30.9025C1041.84 30.9025 1045 33.8335 1045 35.7315C1045 36.4705 1046.85 36.9025 1050 36.9025H1055V29.4025V21.9025H1048.6C1043.03 21.9025 1041.57 22.3255 1037.33 25.1825L1032.45 28.4625L1032.84 25.1825L1033.22 21.9025H1022.61C1012.26 21.9025 1012 21.9575 1012 24.1655ZM519.455 28.5235C522.783 29.8005 524.34 35.0395 524.797 46.4885C525.178 56.0495 524.962 58.2004 523.221 62.1364C521.635 65.7224 520.551 66.8424 518.16 67.3674C511.758 68.7734 508.459 63.8504 507.416 51.3324C506.642 42.0594 508.248 32.6545 511.089 29.8135C513.008 27.8945 516.438 27.3665 519.455 28.5235ZM798.75 32.8645C800.678 36.6885 801 38.9045 800.998 48.3645C800.997 56.8735 800.596 60.2015 799.248 62.8915C795.795 69.7825 788.571 68.9075 785.354 61.2085C783.224 56.1095 783.275 38.5745 785.435 33.4045C787.455 28.5685 788.546 27.8095 793 28.1415C796.041 28.3685 796.795 28.9875 798.75 32.8645ZM983.75 32.8645C985.678 36.6885 986 38.9045 985.998 48.3645C985.997 56.8735 985.596 60.2015 984.248 62.8915C981.962 67.4535 978.125 68.8694 974.494 66.4904C970.218 63.6894 968.789 58.7855 968.79 46.9315C968.792 32.0775 970.988 27.5245 977.874 28.0995C981.049 28.3645 981.78 28.9575 983.75 32.8645ZM664 54.2675C664 58.1045 663.435 60.3515 662.016 62.1555C657.657 67.6965 650 66.0135 650 59.5145C650 53.6205 654.183 50.3044 663.25 49.0094C663.663 48.9504 664 51.3165 664 54.2675ZM511.34 90.8604C503.588 92.7074 497.602 98.7035 496.461 105.764C495.571 111.267 494.164 114.046 491.976 114.619C490.705 114.951 490 115.986 490 117.519C490 119.511 490.502 119.902 493.063 119.902H496.126L495.813 138.032C495.51 155.555 495.425 156.212 493.25 157.654C492.013 158.474 491 159.991 491 161.024C491 162.765 491.948 162.902 504 162.902C516.333 162.902 517 162.799 517 160.902C517 159.802 516.55 158.902 516 158.902C515.45 158.902 514.1 158.002 513 156.902C511.153 155.055 511 153.569 511 137.457V120.012L515.75 119.707C520.454 119.405 520.5 119.368 520.5 115.902C520.5 112.436 520.454 112.399 515.75 112.097L511 111.792V107.496C511 100.859 512.725 96.9025 515.619 96.9025C517.234 96.9025 518.423 97.7365 519.182 99.4025C520.109 101.437 521.035 101.902 524.161 101.902H528V96.5094C528 92.5144 527.59 90.9594 526.418 90.5094C524.322 89.7054 515.308 89.9144 511.34 90.8604ZM799.75 90.6414C794.839 90.9494 794 91.2865 794 92.9525C794 94.0245 794.45 94.9025 795 94.9025C795.55 94.9025 796.9 95.8025 798 96.9025C799.606 98.5085 800 100.235 800 105.671V112.441L792.439 112.059C783.032 111.584 777.506 113.492 772.617 118.904C768.268 123.718 766.638 129.208 766.68 138.902C766.72 148.129 768.229 153.832 771.73 157.993C778.243 165.733 790.263 165.781 798.333 158.099L801.167 155.402L800.494 159.037C800.054 161.41 800.229 162.925 800.997 163.4C801.644 163.8 806.409 163.809 811.586 163.421C819.803 162.805 821 162.482 821 160.876C821 159.864 820.074 158.743 818.943 158.384C817.811 158.025 816.461 156.615 815.943 155.251C815.424 153.888 815 138.626 815 121.337V89.9025L810.25 90.0914C807.638 90.1954 802.913 90.4434 799.75 90.6414ZM344.594 94.5475C337.94 96.5905 329.023 105.452 326.629 112.402C322.415 124.636 323.647 142.563 329.359 152.1C335.266 161.964 347.529 165.633 365.605 162.944L374 161.695V153.298V144.902H370.636C367.57 144.902 367.119 145.301 365.553 149.404C363.43 154.962 360.791 156.902 355.354 156.902C346.489 156.902 342.107 149.539 341.252 133.207C340.397 116.867 343.836 104.589 350.19 101.304C357 97.7824 363.539 100.413 366.078 107.695C367.04 110.457 367.668 110.902 370.598 110.902H374V102.985V95.0685L368.951 93.9854C361.951 92.4844 350.451 92.7495 344.594 94.5475ZM591 95.7415C591 96.7535 592.125 98.0944 593.5 98.7204L596 99.8595V128.402V156.945L593.5 158.084C592.125 158.71 591 160.051 591 161.063C591 162.761 592.074 162.902 605 162.902C617.669 162.902 618.999 162.736 618.994 161.152C618.99 160.189 617.64 158.635 615.994 157.699L613 155.995V145.597V135.199L621.495 134.6C631.544 133.89 637.277 131.629 641.65 126.648C647.979 119.44 648.068 106.419 641.832 100.042C636.877 94.9735 631.291 93.9025 609.818 93.9025C592.214 93.9025 591 94.0215 591 95.7415ZM532.615 102.152C530.825 111.675 530.493 112.405 527.272 113.902C522.868 115.948 522.635 119.902 526.917 119.902H529.835L530.167 137.332C530.468 153.084 530.699 155.032 532.571 157.582C537.496 164.289 546.378 165.675 555.132 161.102C560.86 158.109 561.803 156.497 559.548 153.55C558.232 151.831 557.966 151.813 555.842 153.3C552.674 155.519 548.313 155.355 547.035 152.968C546.449 151.872 546 144.285 546 135.468V119.902H553.06H560.121L559.81 116.152L559.5 112.402L552.75 112.106L546 111.811V105.856V99.9025H539.519C533.59 99.9025 533.002 100.094 532.615 102.152ZM625.795 102.55C629.062 104.624 630.23 108.466 629.787 115.678C629.27 124.104 626.539 127.027 618.565 127.688L613 128.15V114.609C613 104.724 613.337 100.926 614.25 100.542C616.209 99.7164 623.261 100.943 625.795 102.55ZM384 114.402C384 115.777 384.418 116.902 384.929 116.902C385.439 116.902 386.564 117.609 387.429 118.473C388.74 119.785 389 123.002 389 137.902C389 152.802 388.74 156.019 387.429 157.331C386.564 158.195 385.439 158.902 384.929 158.902C384.418 158.902 384 159.802 384 160.902C384 162.799 384.667 162.902 397 162.902C408.955 162.902 410 162.754 410 161.063C410 160.051 408.864 158.705 407.475 158.073L404.95 156.922L405.225 140.769C405.5 124.628 405.502 124.613 408.13 122.653C411.346 120.254 414.721 121.037 416.033 124.488C416.835 126.598 417.583 126.902 421.975 126.902H427V119.402V111.902H420.95C414.688 111.902 410.315 113.476 406.25 117.193L404 119.251V115.576V111.902H394H384V114.402ZM449 113.034C447.075 113.557 443.137 114.919 440.25 116.06L435 118.134V123.018V127.902H440.375C445.535 127.902 445.774 127.783 446.344 124.933C447.506 119.12 453.06 116.258 458.022 118.914C460.082 120.016 461.986 125.58 461.994 130.523C462 133.606 461.925 133.652 455.829 134.342C439.286 136.213 430.164 144.371 432.969 154.787C435.594 164.535 449.545 166.849 459.75 159.227L463 156.8V159.851V162.902H473C479.599 162.902 483 162.528 483 161.803C483 161.199 481.65 159.443 480 157.902L477 155.1L476.998 138.751C476.997 120.065 476.052 116.677 470 113.654C466.119 111.715 455.054 111.388 449 113.034ZM655 114.285C655 115.823 655.705 116.853 656.988 117.189C660.437 118.091 661.173 122.412 660.826 139.742C660.516 155.283 660.39 156.171 658.25 157.902C657.013 158.903 656 160.438 656 161.312C656 162.68 657.742 162.902 668.5 162.902C682.262 162.902 683.331 162.324 678.5 157.493C676.079 155.071 676 154.566 676 141.398C676 126.362 677.09 122.419 681.558 121.298C684.269 120.618 688 123.085 688 125.557C688 126.504 689.478 126.902 693 126.902H698V119.402V111.902H692.565C685.894 111.902 682.409 113.149 678.476 116.941L675.451 119.857L675.831 115.879L676.21 111.902H665.605C655.098 111.902 655 111.924 655 114.285ZM717.934 114.652C709.863 118.744 706.615 124.531 706.144 135.657C705.672 146.802 707.253 152.207 712.525 157.48C717.454 162.409 724.185 164.435 732.982 163.637C741.092 162.902 747.266 159.898 750.859 154.938C758.3 144.665 757.462 126.364 749.171 118.073C744.676 113.578 739.554 111.902 730.313 111.902C724.708 111.902 722.306 112.436 717.934 114.652ZM828.32 113.51C827.884 114.647 828.536 115.817 830.338 117.129L833 119.069V133.436C833 151.01 834.062 156.63 838.119 160.516C840.785 163.07 841.852 163.402 847.404 163.402C852.725 163.402 854.46 162.915 858.838 160.193L864 156.985V160.443C864 163.68 864.208 163.902 867.25 163.895C869.038 163.891 873.538 163.601 877.25 163.25C882.929 162.714 884 162.318 884 160.757C884 159.737 883.663 158.895 883.25 158.887C882.837 158.878 881.825 158.445 881 157.925C879.766 157.146 879.411 153.031 879 134.69L878.5 112.402L868.733 112.116C860.341 111.869 858.874 112.066 858.32 113.51C857.884 114.647 858.536 115.817 860.338 117.129L863 119.069V134.531C863 149.614 862.94 150.053 860.545 152.447C857.685 155.308 852.913 155.705 850.872 153.252C849.854 152.027 849.371 146.548 849 132.002L848.5 112.402L838.733 112.116C830.341 111.869 828.874 112.066 828.32 113.51ZM908.885 113.218C899.555 116.716 894.265 124.351 893.314 135.695C891.783 153.956 901.666 165.097 918.088 163.623C924.142 163.079 928.025 161.435 932.857 157.369C935.83 154.867 935.891 154.665 934.362 152.332C932.382 149.31 931.954 149.315 927.405 152.402C921.282 156.557 914.416 155.54 911.581 150.059C908.087 143.303 908.827 126.358 912.853 120.902C914.898 118.131 919.352 117.119 921.534 118.93C922.311 119.575 923.234 121.633 923.585 123.502C924.216 126.869 924.275 126.902 929.611 126.902H935V120.461C935 116.581 934.53 113.729 933.817 113.289C931.497 111.855 912.664 111.802 908.885 113.218ZM955.934 114.652C952.003 116.645 949.756 118.641 947.772 121.902C940.018 134.645 942.971 154.284 953.574 160.498C962.361 165.648 975.49 164.725 984.25 158.343C989.461 154.546 989.978 153.097 987.062 150.458C985.204 148.777 984.979 148.817 981.556 151.427C977.329 154.651 970.437 155.74 965.969 153.889C962.357 152.393 960.203 148.661 959.347 142.419L958.728 137.902H974.993H991.258L990.605 132.652C989.58 124.41 985.357 117.009 980.093 114.229C973.522 110.76 963.257 110.939 955.934 114.652ZM999 114.285C999 115.823 999.705 116.853 1000.99 117.189C1004.44 118.091 1005.17 122.412 1004.83 139.742C1004.52 155.283 1004.39 156.171 1002.25 157.902C1001.01 158.903 1000 160.438 1000 161.312C1000 162.68 1001.74 162.902 1012.5 162.902C1026.26 162.902 1027.33 162.324 1022.5 157.493C1020.08 155.071 1020 154.566 1020 141.398C1020 126.362 1021.09 122.419 1025.56 121.298C1028.27 120.618 1032 123.085 1032 125.557C1032 126.504 1033.48 126.902 1037 126.902H1042V119.402V111.902H1036.56C1029.89 111.902 1026.41 113.149 1022.48 116.941L1019.45 119.857L1019.83 115.879L1020.21 111.902H1009.6C999.098 111.902 999 111.924 999 114.285ZM1060.68 113.351C1053.48 115.92 1049.43 121.631 1050.29 128.018C1051.09 134.028 1054.2 137.285 1063.88 142.287C1068.78 144.814 1073.05 147.598 1073.39 148.474C1075.62 154.285 1071.75 158.601 1065.23 157.563C1061.42 156.956 1057 153.083 1057 150.346C1057 149.328 1055.82 148.902 1053 148.902H1049V155.341V161.779L1053.75 162.591C1056.36 163.037 1062.55 163.402 1067.5 163.402C1080.75 163.402 1087.21 159.512 1088.65 150.683C1089.93 142.788 1086.22 137.533 1075.61 132.235C1066.95 127.906 1065 126.267 1065 123.318C1065 119.972 1067.64 117.902 1071.9 117.902C1075.72 117.902 1078.96 120.311 1080.32 124.152C1080.75 125.372 1082.01 125.902 1084.47 125.902H1088V119.533V113.164L1084.25 112.544C1077.81 111.479 1064.67 111.929 1060.68 113.351ZM736.168 120.913C740.415 126.628 740.912 147.23 736.959 153.728C734.911 157.096 730.634 158.791 728.145 157.222C723.929 154.563 722.598 151.038 722.178 141.419C721.423 124.165 723.875 117.507 730.765 118.098C733.15 118.303 734.909 119.22 736.168 120.913ZM797.595 120.006C799.225 121.806 799.55 124.04 799.848 135.485L800.195 148.861L797.11 151.946C793.163 155.893 788.702 155.752 785.599 151.582C783.867 149.254 783.439 147.009 783.153 138.73C782.782 128.004 784.46 120.904 787.831 118.937C790.749 117.234 795.562 117.761 797.595 120.006ZM972.471 120.217C973.305 121.49 974.277 124.64 974.63 127.217L975.272 131.902H967.136C962.661 131.902 959 131.534 959 131.084C959 128.28 962.343 119.803 963.779 118.966C966.865 117.167 970.848 117.741 972.471 120.217ZM461.778 145.571C461.396 150.169 460.795 151.682 458.598 153.571C453.325 158.107 446.145 154.926 447.408 148.613C448.509 143.106 452.514 140.085 458.874 139.965L462.248 139.902L461.778 145.571ZM1010.14 189.26L1006.99 192.504L1010.49 195.894L1013.99 199.285L1016.99 196.407C1018.65 194.823 1020 192.99 1020 192.334C1020 191.677 1018.49 189.987 1016.64 188.577L1013.28 186.016L1010.14 189.26ZM318 209.902V214.902H331H344V218.283V221.663L334.369 222.085C325.344 222.479 324.588 222.679 322.369 225.26C319.212 228.93 319.383 232.682 322.949 237.992C325.892 242.374 325.894 242.386 323.925 244.482C322.84 245.637 321.513 248.113 320.976 249.985C317.603 261.745 324.041 269.059 346.901 279.438C353.52 282.443 359.176 284.902 359.468 284.902C359.761 284.902 359.985 283.664 359.967 282.152C359.937 279.618 358.992 278.971 347.918 273.902C333.345 267.232 328.667 263.622 328.667 259.05C328.667 257.277 329.571 254.605 330.677 253.114C335.166 247.06 345.813 243.858 349.429 247.473C352.516 250.561 351.073 253.991 344.978 258.054L342.5 259.706L345.946 263.303L349.391 266.901L352.173 264.237C357.993 258.66 358.245 249.528 352.75 243.27C347.391 237.166 341.398 235.473 334.128 238.007C330.088 239.415 327.471 237.759 329.056 234.797C329.961 233.106 331.306 232.902 341.535 232.902H353V223.757V214.613L359.75 215.25C363.462 215.601 368.422 215.891 370.771 215.895C374.354 215.901 375.227 216.305 376.182 218.402C377.034 220.272 377.034 221.532 376.182 223.402C375.213 225.529 374.372 225.902 370.544 225.902C364.55 225.902 362.567 228.673 363.19 236.18C363.848 244.116 367.254 249.696 377.931 260.334C387.616 269.981 387.617 269.983 389.497 267.906C391.361 265.845 391.317 265.768 384.115 258.518L376.853 251.207L379.427 247.415C380.842 245.329 382.001 243.348 382.003 243.012C382.005 242.677 385.177 242.41 389.054 242.419L396.101 242.435L398.475 249.228C400.62 255.366 406.711 264.758 410.69 268.06C411.976 269.127 412.538 268.956 414.103 267.023C415.963 264.726 415.952 264.68 412.539 260.515C408.862 256.028 404.026 246.498 404.01 243.708C404.004 242.776 405.086 240.751 406.413 239.208C408.674 236.579 409.398 236.38 417.913 236.053L427 235.703V247.587V259.47L432.281 264.686C435.186 267.555 437.886 269.902 438.281 269.902C438.677 269.902 439 257.752 439 242.902V215.902H455H471V220.853V225.804L466.75 223.875C456.147 219.062 446.104 223.849 446.032 233.751C445.993 239.116 448.027 243.566 452.5 247.902C455.383 250.697 456.633 251.209 460.426 251.152C462.903 251.114 466.295 250.402 467.965 249.57L471 248.055V253.76C471 259.382 471.084 259.548 476.779 265.183C479.957 268.329 482.882 270.902 483.279 270.902C483.676 270.902 484 263.997 484 255.557C484 238.653 483.89 238.973 490.889 235.425C493.532 234.085 494.796 233.944 496.639 234.783C499.868 236.255 499.747 240.727 496.293 247.548L493.586 252.894L497.496 256.898C499.646 259.1 502.013 260.902 502.754 260.902C504.512 260.902 506.714 255.535 507.554 249.207C508.483 242.202 506.038 234.328 501.264 228.951C498.12 225.41 496.742 224.626 492.896 224.193C490.297 223.901 487.358 224.175 486.146 224.824C484.083 225.928 484 225.777 484 220.937V215.902H520H556V220.402C556 224.66 555.85 224.902 553.211 224.902C551.678 224.902 548.763 225.748 546.735 226.782C543.732 228.313 542.845 228.42 541.961 227.355C540.457 225.543 532.339 222.902 528.272 222.902C519.53 222.902 512.091 232.196 514.536 240.065C514.936 241.35 519.785 247.01 525.312 252.643C534.814 262.325 535.461 262.794 537.181 261.238C538.182 260.333 539 259.086 539 258.468C539 257.85 536.075 254.445 532.5 250.902C526.756 245.209 526 244.015 526 240.635C526 234.368 530.914 230.632 536.347 232.769C538.024 233.429 538.047 233.618 536.597 234.822C534.272 236.751 534.651 237.947 538.981 242.353L542.864 246.303L547.889 241.603C555.462 234.519 556 234.906 556 247.439V257.976L562.25 263.906L568.5 269.836L568.766 242.869L569.032 215.902H576.516H584L584.039 237.152L584.078 258.402L589.515 264.402L594.951 270.402L594.976 243.152L595 215.902H600H605V210.402V204.902H461.5H318V209.902ZM645.198 210.152L645.5 215.402L666.283 215.672L687.065 215.943L688.033 218.487C689.54 222.453 689.182 225.72 687 227.902C685.31 229.592 683.667 229.902 676.406 229.902H667.812L668.508 235.152C668.891 238.039 669.63 240.852 670.15 241.402C670.671 241.952 674.527 242.483 678.72 242.582C687.224 242.784 688.622 243.795 687.494 248.928C686.167 254.972 678.467 257.746 672.125 254.467C668.651 252.67 663.52 247.031 658.105 239.056C653.796 232.711 652.594 232.011 649.682 234.152C648.143 235.284 648.678 236.443 655.345 246.402C666.9 263.663 673.907 268.872 683.755 267.522C692.743 266.29 698 260.543 698 251.951C698 247.577 696.204 243.146 693.533 240.929C692.078 239.722 692.111 239.412 693.9 237.502C697.799 233.338 699.271 224.375 697.025 218.467L696.05 215.902H716.525H737V222.402V228.902L728.75 228.958C717.964 229.032 713.99 230.422 711.752 234.902C707.714 242.985 711.032 254.691 720.093 264.331C725.047 269.602 725.955 270.184 727.376 269.005C729.657 267.112 729.479 266.449 725.25 261.096C717.592 251.402 716.17 243.928 721.593 241.867C722.988 241.336 727.871 240.902 732.443 240.902C738.966 240.902 741.05 241.259 742.128 242.56C745.605 246.762 754.984 248.999 760.435 246.927L763 245.952V252.711V259.47L768.5 264.902L774 270.334V243.118V215.902H779.5H785V236.772V257.643L790.25 263.7C793.138 267.032 795.837 269.79 796.25 269.83C796.663 269.869 797 257.752 797 242.902V215.902H815H833V219.761V223.62L824.536 224.148C814.467 224.776 810.332 226.766 807.615 232.289C805.962 235.651 805.873 236.758 806.895 241.323C809.161 251.448 817.627 259.902 825.501 259.902C829.387 259.902 830.025 260.308 834.038 265.337L838.375 270.772L841.81 269.337C843.699 268.548 845.414 267.902 845.622 267.902C846.783 267.902 845.63 265.55 843 262.555C839.458 258.521 839.357 257.794 842 255.402C844.738 252.924 844.607 247.72 841.723 244.367C839.839 242.176 838.531 241.693 834.124 241.561C829.079 241.41 828.629 241.607 825.504 245.326C822.436 248.979 821.983 249.186 818.966 248.321C812.75 246.539 813.424 239.477 820.026 237.208C821.937 236.552 827.438 235.989 832.25 235.958L841 235.902V225.902V215.902H860.5H880V220.853V225.804L875.75 223.875C870.635 221.553 865.904 221.383 862.039 223.382C854.268 227.4 852.774 235.346 858.25 243.539C863.517 251.421 869.283 253.113 878.25 249.411C879.784 248.777 880 249.326 880 253.863C880 258.884 880.185 259.22 886.25 265.22L892.5 271.402L893 255.439L893.5 239.477L896.941 237.161C902.291 233.559 905.021 233.21 907.162 235.854C909.33 238.531 908.89 241.255 905.164 248.244L902.582 253.086L907.541 257.405L912.5 261.724L914.36 258.145C916.701 253.641 917.555 244.631 916.137 239.393C912.992 227.77 902.723 220.769 894.934 224.937C893.142 225.897 893 225.606 893 220.963V215.954L908.25 215.678L923.5 215.402L923.802 210.152L924.105 204.902H784.5H644.895L645.198 210.152ZM963.402 206.297C963.108 207.064 963.009 209.426 963.183 211.547L963.5 215.402L970.742 215.696C977.489 215.969 978.026 216.157 978.6 218.446C978.939 219.797 978.94 222.004 978.602 223.35C978.062 225.503 977.357 225.834 972.752 226.1C968.069 226.37 967.368 226.714 966.106 229.357C963.007 235.846 968.48 246.245 982.83 261.131L991.446 270.069L993.223 267.875C994.2 266.668 994.991 265.168 994.981 264.541C994.971 263.915 991.319 259.206 986.865 254.078L978.768 244.753L981.634 241.583C983.21 239.839 984.583 238.251 984.685 238.055C984.787 237.859 985.9 238.419 987.158 239.3C990.136 241.386 998.826 241.413 1001.78 239.345L1004 237.789V248.405V259.022L1009.15 264.462C1011.98 267.454 1014.68 269.902 1015.15 269.902C1015.62 269.902 1016 257.752 1016 242.902V215.902H1021.54C1026.7 215.902 1027 216.032 1026.04 217.836C1023.78 222.058 1025.6 227.868 1029.86 230.009C1031.31 230.739 1032.65 231.424 1032.83 231.532C1033.01 231.64 1032.4 232.893 1031.46 234.316C1029.01 238.062 1029.24 245.939 1031.94 250.297C1036.95 258.413 1048.64 260.877 1059.38 256.081C1062.06 254.882 1064.42 253.902 1064.63 253.902C1064.83 253.902 1065 255.442 1065 257.325C1065 260.226 1065.82 261.444 1070.36 265.325C1073.31 267.842 1076.01 269.902 1076.36 269.902C1076.71 269.902 1077 257.776 1077 242.954V216.007L1082.25 215.704L1087.5 215.402L1087.8 210.152L1088.1 204.902H1026.02C973.838 204.902 963.852 205.124 963.402 206.297ZM427 219.902V223.902H416.96C406.317 223.902 400.716 225.614 397.816 229.754C396.175 232.097 391.168 233.271 387.939 232.07C385.646 231.216 385.5 230.705 385.5 223.538V215.914L406.25 215.908L427 215.902V219.902ZM762.996 224.152C762.992 233.59 761.213 237.706 755.968 240.419C753.114 241.894 752.641 241.896 750.424 240.444C748.092 238.916 748 238.421 748 227.379V215.902H755.5H763L762.996 224.152ZM1004 220.355C1004 226.625 1002.37 229.538 997.838 231.35C994.505 232.684 993.486 232.714 990.724 231.562L987.5 230.218L987.832 223.06L988.164 215.902H996.082H1004V220.355ZM1064 227.369V238.835L1060.61 242.227C1054.24 248.591 1042.61 252.11 1039.2 248.702C1035.67 245.174 1041.54 237.578 1048.73 236.364C1056.46 235.058 1056.38 235.199 1052.39 230.332C1049 226.201 1048.43 225.902 1043.92 225.902C1040.15 225.902 1038.84 225.471 1038.04 223.967C1036.85 221.746 1038.11 217.417 1040.19 216.586C1040.91 216.297 1046.56 216.024 1052.75 215.981L1064 215.902V227.369ZM469.5 234.866C469.5 236.661 459.265 242.006 456.5 241.655C453.47 241.272 453.268 236.532 456.193 234.466C459.212 232.333 469.5 232.643 469.5 234.866ZM878.5 234.902C878.5 236.705 868.329 241.976 865.5 241.64C862.359 241.266 862.438 237.489 865.638 234.972C867.793 233.277 869.477 232.875 873.443 233.106C877.14 233.323 878.5 233.805 878.5 234.902Z" fill="#853046"/>
<path fill-rule="evenodd" clip-rule="evenodd" d="M8.879 1.9775C6.87 3.0385 4.17 5.6065 2.879 7.6835L0.530998 11.4595L0.264999 132.467L0 253.473L2.265 257.908C6.803 266.791 10.586 267.912 36.031 267.913H54.531L49.613 265.186C46.908 263.686 43.758 261.19 42.613 259.637C40.558 256.851 40.524 255.831 40.031 181.794L39.531 106.773L35.686 105.452C31.225 103.919 27.483 100.694 25.307 96.5105L23.773 93.5605L26.367 95.2605C29.922 97.5895 37.191 97.4285 42.122 94.9125C46.398 92.7315 50.787 86.7845 53.647 79.2955L55.303 74.9595L68.917 74.9555L82.531 74.9515L82.633 67.1845C82.796 54.7745 84.701 51.5955 96.667 43.7605C102.092 40.2085 107.813 36.5115 109.379 35.5435L112.227 33.7855L110.071 32.2745C108.324 31.0515 108.044 30.1665 108.595 27.6125C109.612 22.8985 112.883 16.9595 114.462 16.9595C116.321 16.9595 120.031 24.7985 120.031 28.7255C120.031 30.6225 119.34 32.2975 118.281 32.9675C117.104 33.7125 116.919 34.2405 117.717 34.5795C118.369 34.8565 124.085 38.4935 130.42 42.6625C144.209 51.7375 145.307 53.4115 145.855 66.2095L146.23 74.9595H159.886H173.541L175.773 80.7165C179.96 91.5135 186.506 96.9595 195.297 96.9595C198.395 96.9595 200.625 96.2795 202.584 94.7395L205.407 92.5185L202.976 96.8445C200.201 101.781 196.577 104.7 192.115 105.592L189.031 106.21L189.053 154.335C189.073 199.105 189.205 202.746 190.936 206.559C193.434 212.059 197.71 214.888 205.278 216.052C208.717 216.58 225.481 216.889 242.531 216.737L273.531 216.46V115.46C273.531 59.9095 273.194 13.2565 272.781 11.7865C271.708 7.95951 267.164 2.9125 263.36 1.3235C260.66 0.195501 238.67 -0.0324984 136.313 0.00350164C16.012 0.0465016 12.428 0.102501 8.879 1.9775Z" fill="#A32C4D"/>
<path fill-rule="evenodd" clip-rule="evenodd" d="M106.445 92.708C96.2786 98.093 88.0756 103.738 82.9396 108.882C78.5376 113.291 71.9446 124.233 71.9446 127.129C71.9446 129.031 68.7426 131.894 66.6156 131.894C64.5386 131.894 64.4456 134.252 66.4446 136.251C67.2696 137.076 67.9446 138.701 67.9446 139.862C67.9446 141.024 68.8446 143.738 69.9446 145.894C71.8656 149.66 71.9456 151.811 71.9666 200.604C71.9866 247.883 72.1166 251.676 73.8406 255.473C76.0036 260.234 79.7586 263.471 84.8296 264.946C87.2686 265.655 116.576 265.899 174.945 265.695C256.785 265.41 261.607 265.295 264.445 263.56C268.801 260.896 271.15 257.255 271.708 252.301L272.199 247.945L218.744 247.67L165.288 247.394L161.615 244.592C154.341 239.043 154.529 240.503 154.837 192.083C155.095 151.312 155.229 148.507 157.107 144.26C158.205 141.779 158.871 139.143 158.587 138.404C158.303 137.664 158.718 136.811 159.508 136.508C162.046 135.534 161.123 132.4 157.945 131.2C156.295 130.577 154.945 129.466 154.944 128.731C154.942 125.784 148.973 115.098 144.66 110.323C139.852 104.998 130.86 98.535 119.945 92.559L113.445 89L106.445 92.708Z" fill="#853046"/>
</svg>
