<svg width="1345" height="349" viewBox="0 0 1345 349" fill="none" xmlns="http://www.w3.org/2000/svg">
<path fill-rule="evenodd" clip-rule="evenodd" d="M560.25 0.743988L552 1.08099V4.88199C552 8.44999 552.246 8.757 555.994 9.88C563.779 12.213 563.5 9.754 563.5 76C563.5 141.52 563.71 139.529 556.51 142.133C553.335 143.281 553 143.765 553 147.201V151H579H605V147C605 144.13 604.581 143 603.516 143C602.699 143 600.562 141.687 598.766 140.082L595.5 137.164V105.254V73.344L598.308 69.663C601.946 64.893 607.696 62 613.537 62C617.271 62 618.695 62.541 620.983 64.829C625.537 69.383 625.989 73.051 625.991 105.5C625.992 133.565 625.866 135.708 624.027 138.723C622.946 140.496 620.923 142.232 619.531 142.582C617.365 143.125 617 143.779 617 147.108V151H642.5H668V147C668 144.13 667.581 143 666.516 143C665.699 143 663.562 141.688 661.766 140.084L658.5 137.168L657.902 103.334C657.363 72.88 657.098 68.873 655.247 63.219C652.503 54.838 649.151 50.71 642.414 47.414C637.646 45.081 635.524 44.669 628.156 44.642C620.71 44.615 618.608 45.015 613.118 47.501C609.609 49.091 604.209 52.355 601.118 54.755L595.5 59.118L595.235 29.559L594.97 0L581.735 0.20401C574.456 0.31501 564.788 0.558988 560.25 0.743988ZM825.25 0.743988L817 1.08099V4.88199C817 8.46299 817.237 8.754 821.078 9.905C828.694 12.187 828.5 10.45 828.5 76.5C828.5 141.462 828.706 139.531 821.51 142.133C818.335 143.281 818 143.765 818 147.201V151H844H870V147.201C870 143.788 869.654 143.277 866.6 142.172C860.835 140.088 860 136.851 860 116.599V99H863.05C868.617 99 871.543 101.581 879.735 113.72C890.934 130.314 893 134.137 893 138.27C893 140.987 892.511 142.02 891 142.5C889.447 142.993 889 144.013 889 147.067V151H915H941V147.201C941 143.787 940.655 143.277 937.596 142.171C933.138 140.559 930.373 137.047 911.157 108.595C897.63 88.565 895.214 84.443 896.256 83.17C896.94 82.334 903.125 76.529 910 70.269C918.181 62.821 924.66 57.823 928.75 55.807C934.567 52.939 935 52.492 935 49.363V46H908.5H882V50C882 53.363 882.326 54 884.045 54C886.817 54 891 58.366 891 61.258C891 65.889 885.923 73.939 879.321 79.776C871.129 87.019 869.469 87.921 864.25 87.965L860 88V44V0L846.75 0.20401C839.462 0.31501 829.788 0.558988 825.25 0.743988ZM1177 17.5V31H1191.5H1206V17.5V4H1191.5H1177V17.5ZM400 11C400 13.946 400.408 15 401.55 15C404.48 15 408.72 17.91 409.884 20.719C410.735 22.775 410.975 38.779 410.774 80.186L410.5 136.84L408.124 139.368C406.818 140.759 404.455 142.18 402.874 142.528C400.305 143.092 400 143.574 400 147.079V151L429.75 150.992C469.764 150.981 481.83 149.509 495.978 142.912C514.682 134.191 525.446 119.043 530.023 95C531.614 86.647 531.337 63.709 529.541 55C525.199 33.949 511.438 18.362 491.352 11.746C479.122 7.718 470.437 7 433.928 7H400V11ZM470.202 22.897C481.681 27.348 489.836 37.812 494.195 53.686C496.025 60.352 496.337 64.144 496.319 79.5C496.301 94.688 495.966 98.721 494.173 105.314C488.088 127.699 477.44 136.571 455.25 137.745L445 138.287V79.027V19.767L454.75 20.227C461.528 20.546 466.238 21.36 470.202 22.897ZM1096.55 21.25C1096.34 21.938 1095.89 25.508 1095.56 29.184C1094.39 42.175 1090.41 48.785 1082.41 51.024C1078.17 52.213 1078 52.408 1078 56.13V60H1084.43H1090.86L1091.24 94.25C1091.67 133.178 1092.1 135.901 1099.09 143.482C1104.99 149.888 1111.47 152.327 1122.5 152.295C1133.39 152.262 1139.97 150.047 1149.22 143.299C1152.68 140.781 1155.67 138.58 1155.87 138.407C1156.07 138.234 1154.75 136.159 1152.93 133.796C1151.1 131.433 1149.52 129.354 1149.4 129.175C1149.28 128.996 1147.31 130.087 1145.03 131.598C1142.22 133.456 1139.14 134.489 1135.51 134.791C1130.8 135.181 1129.84 134.93 1127.66 132.746C1123.34 128.431 1122.82 124.399 1122.27 91.25L1121.76 60H1136.88H1152V53V46H1137H1122V33V20H1109.47C1100.32 20 1096.83 20.337 1096.55 21.25ZM1174 45.941L1164.5 46.5L1164.19 49.758C1163.9 52.752 1164.22 53.167 1168.2 54.871C1175.88 58.166 1175.5 55.894 1175.5 97.948C1175.5 132.932 1175.37 135.788 1173.64 138.421C1172.62 139.979 1170.49 141.745 1168.89 142.346C1166.41 143.286 1166 143.968 1166 147.219V151H1192H1218V147.449C1218 144.34 1217.57 143.717 1214.52 142.444C1207.34 139.445 1207.53 140.818 1207.2 90.296L1206.91 45L1195.2 45.191C1188.77 45.297 1179.22 45.634 1174 45.941ZM685 49.779C685 53.236 685.332 53.718 688.499 54.864C690.424 55.56 692.561 57.112 693.249 58.314C694.144 59.878 694.678 70.029 695.124 94C695.641 121.682 696.048 128.446 697.471 132.946C701.073 144.333 707.527 150.065 718.909 151.985C730.889 154.005 740.355 151.22 752.303 142.159C756.045 139.322 759.345 137 759.638 137C759.931 137 759.854 140.375 759.468 144.5L758.765 152H767.726C772.654 152 782.157 151.706 788.843 151.346L801 150.693V147.005C801 143.571 800.725 143.234 797.016 142.123C794.825 141.467 792.463 139.933 791.766 138.715C790.818 137.056 790.374 125.202 790 91.5L789.5 46.5L768.75 46.23L748 45.959V49.98C748 52.868 748.418 54 749.484 54C750.301 54 752.438 55.313 754.234 56.918L757.5 59.836V91.746V123.656L754.692 127.337C749.499 134.145 738.633 137.233 733.217 133.439C727.646 129.537 727.541 128.735 727 86L726.5 46.5L705.75 46.23L685 45.959V49.779ZM949 49.781C949 53.032 949.405 53.714 951.894 54.654C953.485 55.255 955.623 57.019 956.644 58.576C958.33 61.146 958.551 64.528 959.057 95.453C959.588 127.901 959.722 129.774 961.91 135.332C966.647 147.369 974.422 152.257 989 152.365C996.536 152.421 998.271 152.067 1004.29 149.246C1008.03 147.496 1013.68 144.025 1016.86 141.532C1020.03 139.039 1022.82 136.999 1023.06 136.998C1023.3 136.996 1023.35 140.371 1023.17 144.498L1022.84 152H1031.76C1036.67 152 1046.16 151.706 1052.84 151.346L1065 150.693V147.005C1065 143.568 1064.73 143.235 1061 142.117C1053.32 139.817 1053.54 141.257 1053.21 90.795L1052.92 46H1031.96H1011V49.425C1011 52.421 1011.53 53.144 1015.25 55.192C1018.26 56.849 1019.85 58.552 1020.69 61.017C1022.25 65.573 1022.47 118.635 1020.94 122.685C1019.65 126.101 1014.49 131.654 1010.8 133.585C1009.31 134.363 1006.09 135 1003.63 135C998.132 135 993.623 131.62 991.868 126.186C991.068 123.705 990.541 109.992 990.257 84.25L989.835 46H969.418H949V49.781ZM1266.97 130.471C1260.74 132.481 1254.63 138.002 1251.45 144.504C1249.11 149.296 1248.83 150.91 1249.14 157.817C1249.45 164.579 1249.95 166.398 1252.71 170.838L1255.92 176H1102.96H950V185V194H983.5H1017V201V208H1002.18C983.946 208 979.229 209.19 972.113 215.588C962.93 223.845 957.022 240.282 958.558 253.302C961.29 276.453 979.586 297.501 1000.96 302.085C1008.53 303.708 1022.42 302.765 1028.1 300.242C1034.1 297.577 1039.57 292.705 1042.31 287.595C1044.12 284.208 1044.49 281.943 1044.43 274.5C1044.33 263.29 1041.81 256.225 1035.31 248.999C1028.83 241.789 1024.18 239.587 1015.34 239.539C1008.95 239.504 1007.71 239.827 1003.84 242.539C995.221 248.574 990.398 260.738 992.962 269.975C994.718 276.301 994.712 277.085 992.905 278.259C988.75 280.956 978.721 273.253 974.182 263.877C968.606 252.357 974.428 237.952 987.241 231.567C992.299 229.047 992.791 229 1014.2 229H1036V211.5V194H1073H1110V204.583C1110 210.404 1109.66 214.996 1109.25 214.788C1097.27 208.749 1093.96 207.537 1088.5 207.206C1081.32 206.771 1076.69 208.48 1070.91 213.698C1065.36 218.71 1063.67 222.384 1063.62 229.5C1063.55 239.589 1071.61 253.341 1080.72 258.681C1084.65 260.985 1085.89 261.206 1092.5 260.781C1097.64 260.452 1101.44 259.543 1104.95 257.806L1110 255.306V265.419V275.533L1121.5 287L1133 298.467V269.819V241.17L1137.47 237.235C1142.07 233.183 1151.3 229 1155.63 229C1156.99 229 1159.25 230.155 1160.66 231.567C1162.97 233.884 1163.18 234.735 1162.82 240.317C1162.49 245.426 1161.6 247.964 1157.67 254.927C1155.06 259.562 1153.11 263.857 1153.35 264.472C1153.59 265.087 1157.42 268.867 1161.86 272.872L1169.94 280.154L1171.98 276.827C1177.28 268.231 1179.45 251.19 1176.65 240.265C1173.23 226.95 1164.78 215.477 1156.25 212.57C1150.05 210.458 1142.43 210.62 1137.25 212.973L1133 214.902V204.451V194H1184.5H1236V205.921V217.841L1223.25 218.171C1213.12 218.432 1209.7 218.898 1206.6 220.437C1200.83 223.298 1196.14 228.495 1192.62 235.911C1189.71 242.047 1189.5 243.256 1189.5 253.5C1189.5 266.085 1190.76 270.312 1197.02 278.627C1208.51 293.9 1229.31 299.499 1252.34 293.517C1263.27 290.675 1275 286.212 1275 284.89C1275 284.397 1272.25 279.597 1268.89 274.224L1262.79 264.456L1257.14 267.162C1248.24 271.434 1234.31 275.133 1224.93 275.72C1214.54 276.371 1208.32 274.214 1205.03 268.818C1199.93 260.45 1204.28 250.931 1216 244.84C1220.17 242.671 1221.87 242.477 1239.25 242.189L1258 241.879V217.939V194H1281.5H1305V235.412V276.824L1315.25 286.493L1325.5 296.163L1325.76 245.081L1326.02 194H1335.51H1345V185V176H1332.73H1320.46L1318.05 169.913C1312.46 155.856 1298.29 136.638 1290.2 132.173C1284.8 129.184 1273.52 128.359 1266.97 130.471ZM1289.79 149.481C1299.03 153.784 1309 166.253 1309 173.509V176.041L1288.25 175.77L1267.5 175.5L1265.19 171C1262.44 165.655 1262.76 159.981 1266.15 153.944C1270.22 146.705 1279.9 144.877 1289.79 149.481ZM1104.5 226.873C1109.01 227.829 1109.16 231.902 1104.8 235.141C1100.11 238.632 1089.32 243.209 1084.51 243.752C1079.64 244.3 1077.65 242.535 1077.79 237.797C1078.02 229.516 1091.32 224.077 1104.5 226.873ZM1026.86 259.1C1035.26 262.029 1030.07 275.749 1018.78 280.451C1014.35 282.296 1007.88 282.476 1006.2 280.8C1005.54 280.14 1005 277.919 1005 275.865C1005 268.484 1008.54 263.104 1015.5 259.89C1020.15 257.745 1022.5 257.581 1026.86 259.1ZM1006.25 307.055C1004.46 307.606 1003 308.219 1003 308.416C1003 308.614 1004.4 311.778 1006.12 315.448C1008.59 320.719 1009.59 321.968 1010.87 321.394C1011.77 320.995 1015.88 320.476 1020 320.241C1026.56 319.868 1027.85 320.086 1030.25 321.98C1033.79 324.767 1034.01 329.705 1030.73 332.788C1027.42 335.896 1019.2 337.424 1012.98 336.089C1002.54 333.85 990.666 325.448 987.365 317.965C985.768 314.346 985.283 314 981.808 314C978.646 314 978 314.345 978 316.033C978 322.284 990.505 337.762 1000.03 343.296C1002.51 344.742 1007.44 346.668 1010.98 347.575C1022.61 350.552 1036.59 346.553 1040.42 339.161C1044.59 331.09 1043.13 319.898 1037.13 313.891C1031.33 308.094 1014.77 304.428 1006.25 307.055ZM1127.2 306.926C1125.38 307.389 1123.67 307.992 1123.4 308.266C1123.13 308.54 1124.38 311.752 1126.18 315.403C1128.63 320.382 1129.83 321.875 1130.97 321.374C1133.28 320.367 1144.61 319.686 1147.4 320.387C1151.1 321.314 1153 323.755 1153 327.571C1153 332.168 1150.36 334.576 1143.83 335.931C1137.62 337.221 1130.17 336.148 1124.2 333.101C1117.28 329.572 1110.34 323.335 1108.04 318.577C1105.97 314.299 1105.57 314 1101.91 314C1098.81 314 1098 314.373 1098 315.804C1098 321.976 1110.8 337.76 1120.33 343.347C1132.18 350.291 1149.45 350.228 1157.35 343.212C1164.74 336.651 1164.69 321.513 1157.26 313.753C1152.16 308.426 1135.84 304.72 1127.2 306.926Z" fill="#D1702C"/>
<path fill-rule="evenodd" clip-rule="evenodd" d="M134.32 125.343C110.523 138.122 98.179 150.073 92.838 165.508C90.603 171.968 88.799 173.969 85.213 173.969C82.349 173.969 82.262 175.883 84.969 179.324C86.105 180.768 86.779 182.362 86.467 182.866C86.156 183.37 87.251 186.637 88.902 190.126L91.902 196.469L91.903 259.537C91.904 329.186 91.934 329.551 98.068 335.825C105.084 343.002 95.445 342.437 216.404 342.757C295.6 342.966 326.537 342.734 329.548 341.907C337.388 339.753 342.777 333.497 344.324 324.753L344.982 321.037L278.193 320.753C211.999 320.472 211.368 320.45 207.404 318.316C202.383 315.614 199.432 312.477 197.452 307.737C196.12 304.549 195.904 296.505 195.904 249.968V195.903L198.404 190.969C199.779 188.256 200.904 184.719 200.904 183.109C200.904 181.431 201.544 179.938 202.404 179.607C203.229 179.291 203.904 177.893 203.904 176.5C203.904 174.512 203.401 173.969 201.559 173.969C198.465 173.969 196.526 171.592 194.473 165.282C190.828 154.08 181.219 142.898 167.404 133.781C158.373 127.821 145.825 120.996 143.904 121C143.079 121.001 138.766 122.956 134.32 125.343Z" fill="#D1702C"/>
<path fill-rule="evenodd" clip-rule="evenodd" d="M15.8705 5.94791C10.5705 7.22191 5.62648 10.9489 2.75348 15.8369L0.0124847 20.4999V174C0.0124847 344.623 -0.594518 329.747 6.65648 336.836C12.1775 342.235 16.8705 343.01 43.4445 342.918C65.3785 342.843 66.7695 342.732 63.5125 341.328C57.7705 338.851 53.4105 334.988 51.4255 330.616C49.6435 326.692 49.5555 322.167 49.5345 233.38L49.5125 140.26L45.1185 139.03C39.2045 137.374 33.9835 132.863 30.8705 126.719L28.2965 121.641L31.4815 124.321C33.2335 125.795 35.7885 127.282 37.1605 127.626C40.4605 128.455 47.8525 127.393 51.3405 125.589C57.4225 122.444 63.5345 114.023 66.9905 104.029L68.2105 100.5L85.4375 99.9999L102.664 99.4999L103.017 90.4999C103.447 79.5739 105.536 72.2919 109.238 68.8149C112.155 66.0759 126.693 56.2529 134.762 51.5679C137.375 50.0509 139.512 48.5869 139.512 48.3149C139.512 48.0429 138.527 47.0229 137.322 46.0469C135.251 44.3699 135.198 43.9789 136.352 38.8259C137.556 33.4439 141.712 25.9999 143.512 25.9999C145.312 25.9999 149.469 33.4439 150.673 38.8259C151.827 43.9789 151.773 44.3699 149.702 46.0469C148.497 47.0229 147.512 48.0429 147.512 48.3149C147.512 48.5869 149.649 50.0509 152.262 51.5679C160.347 56.2619 174.871 66.0789 177.799 68.8279C181.437 72.2449 183.625 79.9779 184.025 90.8389L184.344 99.4999L201.579 99.9999L218.814 100.5L220.035 104.029C223.491 114.023 229.602 122.444 235.684 125.589C239.172 127.393 246.564 128.455 249.864 127.626C251.236 127.282 253.792 125.795 255.544 124.321L258.728 121.641L256.154 126.719C253.041 132.863 247.821 137.374 241.907 139.03L237.512 140.26V198.081C237.512 235.002 237.895 257.686 238.571 260.84C239.869 266.892 245.243 273.519 250.956 276.114C254.7 277.815 258.452 277.958 299.781 277.978L344.549 278L344.281 150.25C344.027 29.7679 343.91 22.2729 342.214 18.5139C339.92 13.4269 337.036 10.3569 332.012 7.65293L328.012 5.49992L173.512 5.34592C88.5375 5.26092 17.5985 5.53191 15.8705 5.94791Z" fill="#F48B31"/>
</svg>
