<svg width="25" height="24" viewBox="0 0 25 24" fill="none" xmlns="http://www.w3.org/2000/svg">
<path d="M12.1726 5.8454C8.76736 5.8454 6.02067 8.59208 6.02067 11.9973C6.02067 15.4026 8.76736 18.1492 12.1726 18.1492C15.5778 18.1492 18.3245 15.4026 18.3245 11.9973C18.3245 8.59208 15.5778 5.8454 12.1726 5.8454ZM12.1726 15.9969C9.97204 15.9969 8.17305 14.2032 8.17305 11.9973C8.17305 9.79141 9.96669 7.99777 12.1726 7.99777C14.3785 7.99777 16.1722 9.79141 16.1722 11.9973C16.1722 14.2032 14.3732 15.9969 12.1726 15.9969ZM20.0111 5.59375C20.0111 6.39152 19.3686 7.02867 18.5762 7.02867C17.7784 7.02867 17.1413 6.38617 17.1413 5.59375C17.1413 4.80134 17.7838 4.15884 18.5762 4.15884C19.3686 4.15884 20.0111 4.80134 20.0111 5.59375ZM24.0856 7.05008C23.9946 5.12794 23.5555 3.42532 22.1474 2.02253C20.7446 0.619743 19.042 0.180703 17.1198 0.0843279C15.1388 -0.0281093 9.20104 -0.0281093 7.22001 0.0843279C5.30322 0.175349 3.6006 0.614389 2.19245 2.01718C0.784311 3.41997 0.350625 5.12259 0.25425 7.04473C0.141813 9.02577 0.141813 14.9635 0.25425 16.9446C0.34527 18.8667 0.784311 20.5693 2.19245 21.9721C3.6006 23.3749 5.29786 23.8139 7.22001 23.9103C9.20104 24.0228 15.1388 24.0228 17.1198 23.9103C19.042 23.8193 20.7446 23.3803 22.1474 21.9721C23.5502 20.5693 23.9892 18.8667 24.0856 16.9446C24.198 14.9635 24.198 9.03112 24.0856 7.05008ZM21.5263 19.0702C21.1087 20.1196 20.3002 20.9281 19.2454 21.351C17.666 21.9775 13.9181 21.8329 12.1726 21.8329C10.4271 21.8329 6.67388 21.9721 5.09976 21.351C4.05035 20.9334 3.24187 20.1249 2.81889 19.0702C2.19245 17.4907 2.33702 13.7428 2.33702 11.9973C2.33702 10.2519 2.19781 6.49861 2.81889 4.92448C3.23651 3.87507 4.04499 3.06659 5.09976 2.64361C6.67924 2.01718 10.4271 2.16174 12.1726 2.16174C13.9181 2.16174 17.6713 2.02253 19.2454 2.64361C20.2949 3.06124 21.1033 3.86972 21.5263 4.92448C22.1527 6.50396 22.0082 10.2519 22.0082 11.9973C22.0082 13.7428 22.1527 17.496 21.5263 19.0702Z" fill="white"/>
</svg>
