<svg width="25" height="24" viewBox="0 0 25 24" fill="none" xmlns="http://www.w3.org/2000/svg">
<path d="M24.3401 2.57143V21.4286C24.3401 22.8482 23.1883 24 21.7687 24H8.61152C9.13652 23.1214 9.81152 21.8571 10.0794 20.8232C10.2401 20.2071 10.899 17.6946 10.899 17.6946C11.3276 18.5143 12.5812 19.2054 13.9151 19.2054C17.8847 19.2054 20.7401 15.5571 20.7401 11.025C20.7401 6.68036 17.1937 3.42857 12.6294 3.42857C6.9508 3.42857 3.94009 7.2375 3.94009 11.3893C3.94009 13.3179 4.96866 15.7179 6.60794 16.4839C6.85973 16.6018 6.9883 16.5482 7.04723 16.3071C7.09009 16.125 7.31509 15.2304 7.41152 14.8179C7.44366 14.6839 7.42759 14.5714 7.32045 14.4429C6.77937 13.7839 6.34009 12.5732 6.34009 11.4429C6.34009 8.53929 8.53652 5.73214 12.2812 5.73214C15.5115 5.73214 17.7776 7.93393 17.7776 11.0839C17.7776 14.6411 15.9829 17.1054 13.6419 17.1054C12.3508 17.1054 11.3865 16.0393 11.6919 14.7268C12.0615 13.1625 12.7794 11.475 12.7794 10.3446C12.7794 7.50536 8.73473 7.89643 8.73473 11.6839C8.73473 12.8464 9.1258 13.6393 9.1258 13.6393C7.44366 20.7536 7.19187 20.8446 7.54009 23.9571L7.65795 24H2.91152C1.49187 24 0.340088 22.8482 0.340088 21.4286V2.57143C0.340088 1.15179 1.49187 0 2.91152 0H21.7687C23.1883 0 24.3401 1.15179 24.3401 2.57143Z" fill="white"/>
</svg>
